<?xml version="1.0" encoding="UTF-8"?>
<!DOCTYPE svg PUBLIC "-//W3C//DTD SVG 1.1//EN" "http://www.w3.org/Graphics/SVG/1.1/DTD/svg11.dtd">
<!-- Creator: CorelDRAW 2017 -->
<svg xmlns="http://www.w3.org/2000/svg" xml:space="preserve" width="1.49485in" height="0.549945in" version="1.1" style="shape-rendering:geometricPrecision; text-rendering:geometricPrecision; image-rendering:optimizeQuality; fill-rule:evenodd; clip-rule:evenodd"
viewBox="0 0 1822 670"
 xmlns:xlink="http://www.w3.org/1999/xlink">
 <defs>
  <style type="text/css">
   <![CDATA[
    .fil2 {fill:black}
    .fil1 {fill:#E6305F;fill-rule:nonzero}
    .fil0 {fill:#00B3C9;fill-rule:nonzero}
   ]]>
  </style>
 </defs>
 <g id="Layer_x0020_1">
  <metadata id="CorelCorpID_0Corel-Layer"/>
  <g id="_2456779206928">
   <path class="fil0" d="M246 379c13,-11 25,-22 38,-33l-29 -19c-15,11 -31,21 -46,32l36 20z"/>
   <path class="fil0" d="M173 442c17,-14 33,-29 50,-43l-36 -24c-12,8 -24,17 -36,25 -8,5 -15,11 -23,16l45 26z"/>
   <path class="fil0" d="M100 434c-6,4 -12,8 -18,12 -4,2 -7,5 -11,7 -13,9 -26,18 -39,28 0,0 0,0 1,0l-1 0 62 0 19 0 13 0c7,-6 13,-11 20,-17l-45 -31z"/>
   <path class="fil0" d="M483 171c-3,2 -6,4 -9,6 -2,1 -4,3 -6,4 -2,1 -3,2 -5,3 -61,42 -123,84 -184,127l28 16c53,-46 106,-91 159,-137 3,-3 7,-6 10,-9 3,-3 6,-5 9,-8l-2 -3z"/>
   <path class="fil1" d="M642 73c-14,-3 -30,-1 -42,7 -24,15 -48,30 -71,46 -1,0 -2,1 -3,1 -51,-18 -101,-37 -152,-55 -8,6 -17,11 -25,17 37,28 73,56 110,84 -22,15 -45,30 -67,45 -14,10 -28,20 -41,32 -3,1 -5,0 -8,-1 -20,-3 -40,-6 -60,-9 -5,5 -9,10 -14,15 18,8 36,16 54,24 -3,3 -5,7 -7,10 -2,4 2,9 6,9 4,-1 8,-2 11,-3 0,19 0,39 0,58 6,-2 13,-5 19,-7 6,-21 11,-43 17,-65 17,-8 34,-17 49,-27 22,-14 43,-29 65,-43 11,45 22,89 33,134 8,-5 16,-10 23,-15 1,-1 2,-1 2,-2 3,-53 6,-107 9,-160 0,-1 0,-2 1,-2 22,-15 45,-29 67,-44 4,-2 7,-5 10,-7 9,-8 15,-19 17,-31 1,-4 -2,-9 -7,-10z"/>
   <path class="fil0" d="M271 545c-48,0 -93,-15 -130,-40l-22 0c42,33 95,53 152,53 58,0 111,-20 152,-53l-22 0c-37,25 -82,40 -130,40z"/>
   <path class="fil0" d="M40 314c0,-99 62,-184 150,-216l9 -17c-99,31 -172,123 -172,233 0,16 2,31 4,46l11 -15c-1,-10 -2,-20 -2,-31z"/>
   <path class="fil1" d="M498 404c-3,-5 -6,-10 -8,-15 -24,-43 -46,-82 -70,-125 -19,12 -25,17 -40,30l-8 33c7,-5 11,-6 18,-11 22,39 45,78 67,118 -80,1 -148,0 -228,1 16,-14 24,-25 41,-37 17,-15 30,-26 52,-44l0 -12c-54,47 -108,92 -159,142 0,0 1,0 1,0l-1 0 94 0c47,0 94,0 142,0l142 0c-14,-26 -29,-52 -44,-78z"/>
   <path class="fil1" d="M355 154l-37 -66 -8 -15 -41 -73 -43 74 -9 15 -70 122c-33,56 -65,113 -98,169 -3,5 -6,10 -9,15 -14,24 -28,48 -41,73 19,-12 38,-24 57,-37 4,-2 7,-5 11,-7 10,-7 19,-13 29,-20 64,-43 127,-85 191,-128 -3,-1 -5,-2 -8,-4 -23,12 -45,24 -67,37l-89 47 96 -165c14,-25 29,-50 43,-74l82 121c12,-7 23,-15 35,-23l8 -5c-10,-19 -21,-38 -31,-56z"/>
   <path class="fil1" d="M888 342l-34 -56 -106 0 18 -32 69 0 -50 -84 -102 172 -45 0 129 -214c2,-4 5,-7 8,-9 3,-2 7,-3 11,-3 4,0 8,1 11,3 3,2 6,5 8,9l129 214 -47 0z"/>
   <g>
    <path class="fil1" d="M1144 342l-125 -99c-3,-3 -6,-5 -7,-8 -1,-3 -1,-5 -1,-8 0,-3 1,-7 2,-9 1,-3 4,-6 8,-9l119 -91 60 0 -147 109 151 115 -60 0zm-185 -224l39 0 0 224 -39 0 0 -224zm0 224l0 -224 0 224z"/>
   </g>
   <path class="fil1" d="M1229 342l0 -39 168 0c10,0 19,-3 24,-8 6,-5 8,-12 8,-21 0,-10 -3,-17 -8,-22 -6,-5 -14,-7 -24,-7l-103 0c-10,0 -20,-2 -28,-5 -9,-3 -16,-8 -22,-13 -6,-6 -10,-12 -14,-20 -3,-8 -5,-16 -5,-26 0,-9 1,-17 4,-25 3,-8 7,-14 13,-20 6,-6 13,-10 22,-13 9,-3 18,-5 30,-5l161 0 0 39 -161 0c-9,0 -16,2 -21,7 -5,5 -7,12 -7,20 0,9 3,15 8,20 5,5 12,7 20,7l103 0c23,0 40,5 52,16 12,11 18,27 18,49 0,9 -1,18 -4,26 -3,8 -7,15 -13,21 -6,6 -13,10 -22,14 -9,3 -19,5 -31,5l-168 0z"/>
   <path class="fil1" d="M1719 342l-34 -56 -106 0 18 -32 69 0 -50 -84 -102 172 -45 0 129 -214c2,-4 5,-7 8,-9 3,-2 7,-3 11,-3 4,0 8,1 11,3 3,2 6,5 8,9l129 214 -47 0z"/>
   <polygon class="fil0" points="639,393 655,393 655,481 639,481 "/>
   <path class="fil0" d="M685 417l0 65 -15 0 0 -80c0,-3 1,-5 2,-7 1,-2 3,-2 6,-2 1,0 2,0 3,1 1,0 2,1 3,2l63 62 0 -65 15 0 0 81c0,3 -1,5 -2,7 -1,2 -3,2 -6,2 -3,0 -5,-1 -7,-3l-62 -63z"/>
   <polygon class="fil0" points="806,481 806,408 772,408 772,393 855,393 855,408 821,408 821,481 "/>
   <path class="fil0" d="M892 430l49 0 0 13 -49 0 0 -13zm-27 52l0 -89 79 0 0 15 -64 0 0 58 64 0 0 15 -79 0z"/>
   <path class="fil0" d="M1040 481l-22 -25 -33 0 0 -14 37 0c6,0 10,-2 13,-5 3,-3 4,-7 4,-13 0,-6 -1,-10 -4,-13 -3,-3 -7,-4 -12,-4l-48 0 0 73 -15 0 0 -89 64 0c5,0 10,1 14,2 4,2 7,4 10,6 3,3 5,6 6,10 1,4 2,8 2,13 0,7 -2,14 -5,19 -3,5 -8,9 -13,11l27 27 -22 0z"/>
   <path class="fil0" d="M1084 417l0 65 -15 0 0 -80c0,-3 1,-5 2,-7 1,-2 3,-2 6,-2 1,0 2,0 3,1 1,0 2,1 3,2l63 62 0 -65 15 0 0 81c0,3 -1,5 -2,7 -1,2 -3,2 -6,2 -3,0 -5,-1 -7,-3l-62 -63z"/>
   <path class="fil0" d="M1269 481l-13 -22 -42 0 7 -13 27 0 -20 -33 -40 68 -18 0 51 -85c1,-2 2,-3 3,-4 1,-1 3,-1 4,-1 2,0 3,0 4,1 1,1 2,2 3,4l51 85 -19 0z"/>
   <polygon class="fil0" points="1310,481 1310,408 1276,408 1276,393 1359,393 1359,408 1325,408 1325,481 "/>
   <polygon class="fil0" points="1370,393 1385,393 1385,481 1370,481 "/>
   <path class="fil0" d="M1464 466c4,0 8,-1 11,-2 3,-1 6,-3 9,-6 2,-3 4,-6 6,-9 1,-4 2,-7 2,-12 0,-4 -1,-8 -2,-12 -1,-4 -3,-7 -6,-9 -2,-3 -5,-4 -9,-6 -3,-1 -7,-2 -11,-2l-22 0c-4,0 -8,1 -11,2 -3,1 -6,3 -9,6 -2,3 -4,6 -6,9 -1,3 -2,7 -2,12 0,4 1,8 2,12 1,4 3,7 6,9 2,3 5,5 9,6 3,1 7,2 11,2l22 0zm-22 15c-6,0 -12,-1 -17,-3 -5,-2 -10,-5 -14,-10 -4,-4 -7,-9 -9,-14 -2,-6 -3,-11 -3,-18 0,-6 1,-12 3,-18 2,-5 5,-10 9,-14 4,-4 8,-7 14,-9 5,-2 11,-3 17,-3l22 0c6,0 12,1 18,3 5,2 10,5 14,9 4,4 7,8 9,14 2,5 3,11 3,18 0,6 -1,12 -3,18 -2,6 -5,10 -9,14 -4,4 -8,7 -14,10 -5,2 -11,3 -17,3l-22 0z"/>
   <path class="fil0" d="M1534 417l0 65 -15 0 0 -80c0,-3 1,-5 2,-7 1,-2 3,-2 6,-2 1,0 2,0 3,1 1,0 2,1 3,2l63 62 0 -65 15 0 0 81c0,3 -1,5 -2,7 -1,2 -3,2 -6,2 -3,0 -5,-1 -7,-3l-62 -63z"/>
   <path class="fil0" d="M1718 481l-13 -22 -42 0 7 -13 27 0 -20 -33 -40 68 -18 0 51 -85c1,-2 2,-3 3,-4 1,-1 3,-1 4,-1 2,0 3,0 4,1 1,1 2,2 3,4l51 85 -19 0z"/>
   <polygon class="fil0" points="1746,481 1746,393 1762,393 1762,466 1822,466 1822,481 "/>
   <path class="fil2" d="M17 669l0 -56 13 0 0 56 -13 0zm64 0l-23 -29c-1,-1 -1,-2 -2,-3 -1,-1 -2,-3 -3,-4l0 0c0,1 0,4 0,8l0 28 -13 0 0 -56 13 0 23 28c1,1 2,2 3,3 1,1 2,2 2,3l0 0c0,-1 0,-2 0,-4 0,-2 0,-3 0,-5l0 -26 13 0 0 56 -12 0zm59 -28c0,-3 0,-5 -1,-7 -1,-2 -2,-4 -4,-5 -2,-1 -4,-3 -6,-3 -2,-1 -5,-1 -8,-1l-6 0 0 35 6 0c6,0 11,-2 14,-5 3,-3 4,-7 4,-12zm14 0c0,9 -3,16 -9,21 -6,5 -14,8 -24,8l-19 0 0 -56 20 0c10,0 17,2 23,7 6,5 8,12 8,20zm7 28l0 -56 13 0 0 56 -13 0zm47 -33c-1,-2 -1,-3 -1,-4 0,-1 -1,-2 -1,-3l0 0c0,2 -1,4 -2,7l-3 9 11 0 -3 -9zm12 33l-5 -13 -18 0 -5 13 -13 0 22 -56 10 0 23 56 -14 0zm23 -61c0,1 0,2 0,3 0,1 0,2 0,3 0,3 -1,6 -2,9 -1,3 -3,5 -5,8l-8 -3c1,-2 2,-4 2,-6 0,-2 1,-4 1,-6 0,-1 0,-2 0,-2 0,-1 0,-2 0,-3l11 -2zm45 45c0,5 -2,9 -6,12 -4,3 -9,4 -15,4 -3,0 -7,0 -10,-1 -3,-1 -6,-2 -9,-4l5 -9c4,3 9,5 13,5 1,0 2,0 3,0 1,0 2,-1 2,-1 2,-1 3,-2 3,-4 0,-2 -3,-5 -8,-7 -7,-3 -11,-6 -13,-8 -1,-1 -2,-3 -3,-5 -1,-2 -1,-3 -1,-5 0,-4 2,-8 5,-11 4,-3 9,-5 15,-5 3,0 5,0 8,1 2,1 5,1 7,3l0 11c-5,-3 -10,-4 -14,-4 -2,0 -4,0 -5,1 -1,1 -2,2 -2,3 0,2 2,5 6,7 7,3 10,5 11,6 4,3 6,7 6,13zm67 16l-23 -29c-1,-1 -1,-2 -2,-3 -1,-1 -2,-3 -3,-4l0 0c0,1 0,4 0,8l0 28 -13 0 0 -56 13 0 23 28c1,1 2,2 3,3 1,1 2,2 2,3l0 0c0,-1 0,-2 0,-4 0,-2 0,-3 0,-5l0 -26 13 0 0 56 -12 0zm64 -28c0,-6 -2,-10 -5,-14 -3,-3 -6,-5 -11,-5 -5,0 -8,2 -11,5 -3,3 -5,8 -5,14 0,6 2,10 5,14 3,3 6,5 11,5 5,0 8,-2 11,-5 3,-3 5,-8 5,-14zm14 0c0,8 -3,15 -8,20 -6,6 -13,8 -21,8 -9,0 -15,-2 -20,-7 -6,-5 -9,-12 -9,-21 0,-9 3,-16 8,-21 6,-6 13,-8 21,-8 5,0 9,1 13,2 4,1 7,4 9,6 5,5 7,12 7,20zm16 22c0,1 0,2 -1,3 0,1 -1,2 -1,2 -1,1 -1,1 -2,1 -1,0 -2,1 -3,1 -1,0 -2,0 -3,-1 -1,0 -2,-1 -2,-1 -1,-1 -1,-1 -1,-2 0,-1 -1,-2 -1,-3 0,-1 0,-2 1,-3 0,-1 1,-2 1,-2 1,-1 1,-1 2,-1 1,0 2,-1 3,-1 1,0 2,0 3,1 1,0 2,1 2,1 1,1 1,1 1,2 0,1 1,2 1,3zm28 6l0 -43 -13 4 -4 -9 20 -9 10 0 0 56 -13 0zm68 -33c-1,-2 -1,-3 -1,-4 0,-1 -1,-2 -1,-3l0 0c0,2 -1,4 -2,7l-3 9 11 0 -3 -9zm12 33l-5 -13 -18 0 -5 13 -13 0 22 -56 10 0 23 56 -14 0zm19 0l0 -56 13 0 0 56 -13 0zm48 -38c0,-1 0,-2 -1,-3 0,-1 -1,-2 -2,-2 -1,-1 -1,-1 -2,-1 -1,0 -2,-1 -3,-1l-5 0 0 15 5 0c1,0 2,0 3,-1 1,0 2,-1 2,-2 1,-1 1,-2 2,-3 0,-1 1,-2 1,-3zm5 38c-3,-5 -5,-8 -6,-11 -1,-3 -2,-4 -3,-5 -1,-2 -2,-3 -3,-4 -1,-1 -1,-1 -2,-2l-4 0 0 21 -13 0 0 -56 18 0c7,0 13,2 16,5 3,3 5,7 5,11 0,3 -1,6 -3,9 -2,2 -4,4 -7,5l0 0c1,1 3,3 6,8 1,1 2,3 4,6 2,3 4,7 6,11l-15 0zm77 0l0 -23 -25 0 0 23 -13 0 0 -56 13 0 0 22 25 0 0 -22 13 0 0 56 -13 0zm65 -28c0,-6 -2,-10 -5,-14 -3,-3 -6,-5 -11,-5 -5,0 -8,2 -11,5 -3,3 -5,8 -5,14 0,6 2,10 5,14 3,3 6,5 11,5 5,0 8,-2 11,-5 3,-3 5,-8 5,-14zm14 0c0,8 -3,15 -8,20 -6,6 -13,8 -21,8 -9,0 -15,-2 -20,-7 -6,-5 -9,-12 -9,-21 0,-9 3,-16 8,-21 6,-6 13,-8 21,-8 5,0 9,1 13,2 4,1 7,4 9,6 5,5 7,12 7,20zm44 12c0,5 -2,9 -6,12 -4,3 -9,4 -15,4 -3,0 -7,0 -10,-1 -3,-1 -6,-2 -9,-4l5 -9c4,3 9,5 13,5 1,0 2,0 3,0 1,0 2,-1 2,-1 2,-1 3,-2 3,-4 0,-2 -3,-5 -8,-7 -7,-3 -11,-6 -13,-8 -1,-1 -2,-3 -3,-5 -1,-2 -1,-3 -1,-5 0,-4 2,-8 5,-11 4,-3 9,-5 15,-5 3,0 5,0 8,1 2,1 5,1 7,3l0 11c-5,-3 -10,-4 -14,-4 -2,0 -4,0 -5,1 -1,1 -2,2 -2,3 0,2 2,5 6,7 7,3 10,5 11,6 4,3 6,7 6,13zm47 -29l-15 0 0 46 -13 0 0 -46 -16 0 0 -10 47 0 -3 10zm7 46l0 -56 34 0 -3 10 -17 0 0 12 18 0 0 11 -18 0 0 13 20 0 0 10 -33 0zm78 -16c0,5 -2,9 -6,12 -4,3 -9,4 -15,4 -3,0 -7,0 -10,-1 -3,-1 -6,-2 -9,-4l5 -9c4,3 9,5 13,5 1,0 2,0 3,0 1,0 2,-1 2,-1 2,-1 3,-2 3,-4 0,-2 -3,-5 -8,-7 -7,-3 -11,-6 -13,-8 -1,-1 -2,-3 -3,-5 -1,-2 -1,-3 -1,-5 0,-4 2,-8 5,-11 4,-3 9,-5 15,-5 3,0 5,0 8,1 2,1 5,1 7,3l0 11c-5,-3 -10,-4 -14,-4 -2,0 -4,0 -5,1 -1,1 -2,2 -2,3 0,2 2,5 6,7 7,3 10,5 11,6 4,3 6,7 6,13zm44 0c0,5 -2,9 -6,12 -4,3 -9,4 -15,4 -3,0 -7,0 -10,-1 -3,-1 -6,-2 -9,-4l5 -9c4,3 9,5 13,5 1,0 2,0 3,0 1,0 2,-1 2,-1 2,-1 3,-2 3,-4 0,-2 -3,-5 -8,-7 -7,-3 -11,-6 -13,-8 -1,-1 -2,-3 -3,-5 -1,-2 -1,-3 -1,-5 0,-4 2,-8 5,-11 4,-3 9,-5 15,-5 3,0 5,0 8,1 2,1 5,1 7,3l0 11c-5,-3 -10,-4 -14,-4 -2,0 -4,0 -5,1 -1,1 -2,2 -2,3 0,2 2,5 6,7 7,3 10,5 11,6 4,3 6,7 6,13zm62 -29l-15 0 0 46 -13 0 0 -46 -16 0 0 -10 47 0 -3 10zm33 7c0,-1 0,-2 -1,-3 0,-1 -1,-2 -2,-2 -1,-1 -1,-1 -2,-1 -1,0 -2,-1 -3,-1l-5 0 0 15 5 0c1,0 2,0 3,-1 1,0 2,-1 2,-2 1,-1 1,-2 2,-3 0,-1 1,-2 1,-3zm5 38c-3,-5 -5,-8 -6,-11 -1,-3 -2,-4 -3,-5 -1,-2 -2,-3 -3,-4 -1,-1 -1,-1 -2,-2l-4 0 0 21 -13 0 0 -56 18 0c7,0 13,2 16,5 3,3 5,7 5,11 0,3 -1,6 -3,9 -2,2 -4,4 -7,5l0 0c1,1 3,3 6,8 1,1 2,3 4,6 2,3 4,7 6,11l-15 0zm44 -33c-1,-2 -1,-3 -1,-4 0,-1 -1,-2 -1,-3l0 0c0,2 -1,4 -2,7l-3 9 11 0 -3 -9zm12 33l-5 -13 -18 0 -5 13 -13 0 22 -56 10 0 23 56 -14 0zm19 0l0 -56 13 0 0 56 -13 0zm64 0l-23 -29c-1,-1 -1,-2 -2,-3 -1,-1 -2,-3 -3,-4l0 0c0,1 0,4 0,8l0 28 -13 0 0 -56 13 0 23 28c1,1 2,2 3,3 1,1 2,2 2,3l0 0c0,-1 0,-2 0,-4 0,-2 0,-3 0,-5l0 -26 13 0 0 56 -12 0zm21 0l0 -56 13 0 0 56 -13 0zm64 0l-23 -29c-1,-1 -1,-2 -2,-3 -1,-1 -2,-3 -3,-4l0 0c0,1 0,4 0,8l0 28 -13 0 0 -56 13 0 23 28c1,1 2,2 3,3 1,1 2,2 2,3l0 0c0,-1 0,-2 0,-4 0,-2 0,-3 0,-5l0 -26 13 0 0 56 -12 0zm72 -5c-4,2 -7,3 -11,4 -4,1 -8,1 -13,1 -4,0 -8,-1 -12,-2 -3,-1 -7,-3 -9,-6 -5,-5 -7,-12 -7,-20 0,-8 3,-15 9,-21 6,-6 14,-8 23,-8 6,0 12,1 17,3l0 11c-3,-1 -5,-2 -7,-3 -2,-1 -5,-1 -7,-1 -7,0 -12,2 -16,6 -3,3 -4,7 -4,12 0,5 2,10 5,13 3,4 8,6 13,6 3,0 6,0 8,-1l0 -18 13 0 0 24zm28 5l0 -56 13 0 0 56 -13 0zm64 0l-23 -29c-1,-1 -1,-2 -2,-3 -1,-1 -2,-3 -3,-4l0 0c0,1 0,4 0,8l0 28 -13 0 0 -56 13 0 23 28c1,1 2,2 3,3 1,1 2,2 2,3l0 0c0,-1 0,-2 0,-4 0,-2 0,-3 0,-5l0 -26 13 0 0 56 -12 0zm59 -16c0,5 -2,9 -6,12 -4,3 -9,4 -15,4 -3,0 -7,0 -10,-1 -3,-1 -6,-2 -9,-4l5 -9c4,3 9,5 13,5 1,0 2,0 3,0 1,0 2,-1 2,-1 2,-1 3,-2 3,-4 0,-2 -3,-5 -8,-7 -7,-3 -11,-6 -13,-8 -1,-1 -2,-3 -3,-5 -1,-2 -1,-3 -1,-5 0,-4 2,-8 5,-11 4,-3 9,-5 15,-5 3,0 5,0 8,1 2,1 5,1 7,3l0 11c-5,-3 -10,-4 -14,-4 -2,0 -4,0 -5,1 -1,1 -2,2 -2,3 0,2 2,5 6,7 7,3 10,5 11,6 4,3 6,7 6,13zm47 -29l-15 0 0 46 -13 0 0 -46 -16 0 0 -10 47 0 -3 10zm7 46l0 -56 13 0 0 56 -13 0zm63 -46l-15 0 0 46 -13 0 0 -46 -16 0 0 -10 47 0 -3 10zm57 23c0,7 -2,13 -6,17 -4,4 -11,7 -19,7 -9,0 -15,-2 -19,-6 -2,-2 -3,-4 -4,-7 -1,-3 -1,-6 -1,-9l0 -35 13 0 0 34c0,2 0,3 1,5 0,1 1,3 2,4 1,1 2,2 4,3 2,1 3,1 5,1 8,0 12,-4 12,-12l0 -34 13 0 0 33zm50 -23l-15 0 0 46 -13 0 0 -46 -16 0 0 -10 47 0 -3 10zm7 46l0 -56 34 0 -3 10 -17 0 0 12 18 0 0 11 -18 0 0 13 20 0 0 10 -33 0z"/>
   <path class="fil0" d="M1699 87c6,0 12,2 18,5 6,3 11,8 14,14 3,6 5,12 5,19 0,6 -2,12 -5,18 -3,6 -8,10 -14,14 -6,3 -12,5 -18,5 -6,0 -13,-2 -18,-5 -6,-3 -10,-8 -14,-14 -3,-6 -5,-12 -5,-18 0,-6 2,-13 5,-19 3,-6 8,-10 14,-14 6,-3 12,-5 18,-5zm0 6c-5,0 -10,1 -15,4 -5,3 -9,6 -12,11 -3,5 -4,10 -4,15 0,5 1,10 4,15 3,5 7,9 11,11 5,3 10,4 15,4 5,0 10,-1 15,-4 5,-3 9,-7 11,-11 3,-5 4,-10 4,-15 0,-5 -1,-10 -4,-15 -3,-5 -7,-9 -12,-11 -5,-3 -10,-4 -15,-4zm-16 51l0 -40 14 0c5,0 8,0 10,1 2,1 4,2 5,4 1,2 2,4 2,6 0,3 -1,5 -3,8 -2,2 -5,3 -8,4 1,1 3,1 3,2 2,2 4,4 6,8l5 8 -8 0 -4 -6c-3,-5 -5,-8 -7,-9 -1,-1 -3,-1 -5,-1l-4 0 0 17 -6 0zm6 -22l8 0c4,0 6,-1 8,-2 1,-1 2,-3 2,-4 0,-1 0,-2 -1,-3 -1,-1 -2,-2 -3,-2 -1,0 -3,-1 -6,-1l-7 0 0 12z"/>
  </g>
 </g>
</svg>
